# xmcd
#
# Track frame offsets:
#	150
#	3681
#	22283
#	40664
#	55774
#	67290
#	95801
#	103454
#	121859
#	132592
#	148062
#	157839
#	177310
#	182381
#
# Disc length: 2549 seconds
#
# Revision: 2
# Processed by: cddbd v1.5.2PL0 Copyright (c) Steve Scherf et al.
# Submitted via: audiograbber 1.83.01
#
DISCID=ce09f30e
DTITLE=The Dead South - Sugar and Joy (Limited Edition)
DYEAR=2019
DGENRE=Bluegrass
TTITLE0=Act Of Approach
TTITLE1=Diamond Ring
TTITLE2=Blue Trash
TTITLE3=Black Lung
TTITLE4=Fat Little Killer Boy
TTITLE5=Broken Cowboy
TTITLE6=Snake Man Pt. I
TTITLE7=Snake Man Pt II
TTITLE8=Heaven In A Wheelbarrow
TTITLE9=Crawdaddy Served Cold
TTITLE10=Alabama People
TTITLE11=Spaghetti
TTITLE12=Distance Oneself
TTITLE13=This Little Light
EXTD=MARO\n
EXTT0=
EXTT1=
EXTT2=
EXTT3=
EXTT4=
EXTT5=
EXTT6=
EXTT7=
EXTT8=
EXTT9=
EXTT10=
EXTT11=
EXTT12=
EXTT13=
PLAYORDER=
